<?xml version="1.0" encoding="UTF-8" standalone="no"?>
<!-- Created with Inkscape (http://www.inkscape.org/) -->
<svg xmlns:dc="http://purl.org/dc/elements/1.1/" xmlns:cc="http://web.resource.org/cc/" xmlns:rdf="http://www.w3.org/1999/02/22-rdf-syntax-ns#" xmlns:svg="http://www.w3.org/2000/svg" xmlns="http://www.w3.org/2000/svg" xmlns:xlink="http://www.w3.org/1999/xlink" xmlns:sodipodi="http://inkscape.sourceforge.net/DTD/sodipodi-0.dtd" xmlns:inkscape="http://www.inkscape.org/namespaces/inkscape" width="200" height="160" id="svg3164" sodipodi:version="0.32" inkscape:version="0.43" sodipodi:docbase="/n" sodipodi:docname="Laptop icon.svg" version="1.0">
  <defs id="defs3166">
    <linearGradient id="linearGradient3145">
      <stop id="stop3147" offset="0" style="stop-color: rgb(130, 130, 130); stop-opacity: 1;"/>
      <stop style="stop-color: rgb(120, 120, 120); stop-opacity: 1;" offset="0.5" id="stop3149"/>
      <stop id="stop3151" offset="0.75999999" style="stop-color: rgb(127, 127, 127); stop-opacity: 1;"/>
      <stop style="stop-color: rgb(125, 125, 125); stop-opacity: 1;" offset="1" id="stop3153"/>
    </linearGradient>
    <radialGradient inkscape:collect="always" xlink:href="#linearGradient3145" id="radialGradient3143" cx="82.254112" cy="407.34015" fx="82.254112" fy="407.34015" r="4.0429993" gradientTransform="matrix(1, 0, 0, 0.340094, -2.32453e-16, 268.806)" gradientUnits="userSpaceOnUse"/>
    <linearGradient id="linearGradient3081">
      <stop id="stop3083" offset="0" style="stop-color: rgb(217, 217, 217); stop-opacity: 1;"/>
      <stop style="stop-color: rgb(235, 235, 235); stop-opacity: 1;" offset="0.5" id="stop3089"/>
      <stop id="stop3091" offset="0.75999999" style="stop-color: rgb(235, 235, 235); stop-opacity: 1;"/>
      <stop style="stop-color: rgb(197, 197, 197); stop-opacity: 1;" offset="1" id="stop3087"/>
    </linearGradient>
    <linearGradient inkscape:collect="always" xlink:href="#linearGradient3081" id="linearGradient3079" x1="44.188786" y1="393.5625" x2="118.06379" y2="393.5625" gradientUnits="userSpaceOnUse"/>
    <linearGradient inkscape:collect="always" xlink:href="#linearGradient3121" id="linearGradient3127" x1="40.530365" y1="408.53125" x2="121.72221" y2="408.53125" gradientUnits="userSpaceOnUse"/>
    <linearGradient id="linearGradient3121">
      <stop style="stop-color: rgb(173, 173, 173); stop-opacity: 1;" offset="0" id="stop3123"/>
      <stop style="stop-color: rgb(202, 202, 202); stop-opacity: 1;" offset="1" id="stop3125"/>
    </linearGradient>
    <linearGradient inkscape:collect="always" xlink:href="#linearGradient3121" id="linearGradient3135" x1="50.165428" y1="365.50964" x2="112.07718" y2="365.50964" gradientUnits="userSpaceOnUse"/>
  </defs>
  <sodipodi:namedview id="base" pagecolor="#ffffff" bordercolor="#666666" borderopacity="1.0" inkscape:pageopacity="0.0" inkscape:pageshadow="2" inkscape:zoom="1.3577368" inkscape:cx="136.17657" inkscape:cy="87.58862" inkscape:document-units="px" inkscape:current-layer="layer1" inkscape:window-width="842" inkscape:window-height="540" inkscape:window-x="0" inkscape:window-y="15"/>
  <metadata id="metadata3169">
    <rdf:RDF>
      <cc:Work rdf:about="">
        <dc:format>image/svg+xml</dc:format>
        <dc:type rdf:resource="http://purl.org/dc/dcmitype/StillImage"/>
        <cc:license rdf:resource="http://creativecommons.org/licenses/GPL/2.0/"/>
        <dc:title>Ordenador portátil</dc:title>
        <dc:date>12 junio 2006</dc:date>
        <dc:creator>
          <cc:Agent>
            <dc:title>Daniel Clemente Laboreo</dc:title>
          </cc:Agent>
        </dc:creator>
        <dc:subject>
          <rdf:Bag>
            <rdf:li>laptop portátil notebook ordenador terminal equipo icono icon</rdf:li>
          </rdf:Bag>
        </dc:subject>
      </cc:Work>
      <cc:License rdf:about="http://creativecommons.org/licenses/GPL/2.0/">
        <cc:permits rdf:resource="http://web.resource.org/cc/Reproduction"/>
        <cc:permits rdf:resource="http://web.resource.org/cc/Distribution"/>
        <cc:requires rdf:resource="http://web.resource.org/cc/Notice"/>
        <cc:permits rdf:resource="http://web.resource.org/cc/DerivativeWorks"/>
        <cc:requires rdf:resource="http://web.resource.org/cc/ShareAlike"/>
        <cc:requires rdf:resource="http://web.resource.org/cc/SourceCode"/>
      </cc:License>
    </rdf:RDF>
  </metadata>
  <g inkscape:label="Capa 1" inkscape:groupmode="layer" id="layer1">
    <g id="g3155" transform="matrix(1.68489, 0, 0, 1.68489, -35.1217, -553.792)">
      <path sodipodi:nodetypes="ccccccccccccc" id="rect2211" d="M 56.76468,342.94804 C 53.24197,342.98546 50.42093,343.01859 50.42093,346.0024 L 50.42093,351.28661 L 50.42093,377.33151 C 50.42093,377.47248 50.40855,377.61552 50.42093,377.75372 L 50.42093,388.0714 L 111.82718,388.0714 L 111.82718,377.83288 L 111.82718,351.28661 L 111.82718,346.0024 C 111.82718,342.99507 108.98236,342.94804 105.42093,342.94804 L 56.82718,342.94804 C 56.79936,342.94804 56.79242,342.94773 56.76468,342.94804 z " style="fill: url(#linearGradient3135) rgb(0, 0, 0); fill-opacity: 1; stroke: rgb(0, 0, 0); stroke-width: 0.5; stroke-linejoin: round; stroke-miterlimit: 4; stroke-dasharray: none; stroke-opacity: 1;"/>
      <path id="rect2213" d="M 50.407537,388.08134 L 40.782537,405.76062 L 66.345037,405.76062 L 71.470037,405.76062 L 90.782537,405.76062 L 97.032537,405.76062 L 121.47004,405.76062 L 111.84504,388.08134 L 97.032537,388.08134 L 81.126287,388.08134 L 66.345037,388.08134 L 50.407537,388.08134 z " style="opacity: 1; fill: rgb(214, 214, 214); fill-opacity: 1; fill-rule: nonzero; stroke: rgb(0, 0, 0); stroke-width: 0.5; stroke-linejoin: round; stroke-miterlimit: 4; stroke-dasharray: none; stroke-opacity: 1;"/>
      <path id="rect2215" d="M 40.782537,405.75 L 40.782537,407.75 C 40.777652,407.79839 40.782537,407.85653 40.782537,407.90625 L 40.782537,408.96875 L 40.782537,409.875 C 40.782537,410.67047 41.424565,411.31251 42.220037,411.3125 L 120.03254,411.3125 C 120.82801,411.3125 121.47004,410.67046 121.47004,409.875 L 121.47004,408.96875 L 121.47004,407.90625 C 121.47004,407.85653 121.47492,407.79839 121.47004,407.75 L 121.47004,405.75 L 40.782537,405.75 z " style="fill: url(#linearGradient3127) rgb(0, 0, 0); fill-opacity: 1; stroke: rgb(0, 0, 0); stroke-width: 0.5; stroke-linejoin: round; stroke-miterlimit: 4; stroke-dasharray: none; stroke-opacity: 1;"/>
      <rect y="345.69296" x="52.579746" height="40.113441" width="57.004059" id="rect2232" style="fill: rgb(103, 103, 96); fill-opacity: 1; stroke: rgb(0, 0, 0); stroke-width: 0.5; stroke-linejoin: round; stroke-miterlimit: 4; stroke-dasharray: none; stroke-opacity: 1;"/>
      <path id="path2236" d="M 50.407537,388.09375 L 44.438787,399.03125 L 117.81379,399.03125 L 111.84504,388.09375 L 97.032537,388.09375 L 81.126287,388.09375 L 66.345037,388.09375 L 50.407537,388.09375 z " style="fill: url(#linearGradient3079) rgb(0, 0, 0); fill-opacity: 1; stroke: rgb(0, 0, 0); stroke-width: 0.5; stroke-linejoin: round; stroke-miterlimit: 4; stroke-dasharray: none; stroke-opacity: 1;"/>
      <path sodipodi:nodetypes="ccccc" id="path2258" d="M 73.480213,399.62487 L 89.877155,399.62487 L 91.314043,405.0191 L 72.725474,405.0191 L 73.480213,399.62487 z " style="fill: rgb(190, 190, 190); fill-opacity: 1; fill-rule: evenodd; stroke: none; stroke-width: 0.5; stroke-linecap: butt; stroke-linejoin: round; stroke-miterlimit: 4; stroke-dasharray: none; stroke-opacity: 1;"/>
      <path id="path2268" d="M 78.472862,406.21516 C 78.436193,406.58609 78.487411,406.91693 78.597862,407.18391 C 78.97662,408.05735 79.948157,408.42334 80.066612,408.46516 C 80.066612,408.46516 80.916521,408.46516 81.472862,408.46516 C 82.091019,408.46516 82.44854,408.46516 83.035362,408.46516 C 83.591703,408.46516 84.441614,408.46516 84.441612,408.46516 C 84.441611,408.46516 85.506357,408.11558 85.910362,407.18391 C 86.020813,406.91693 86.072034,406.58609 86.035362,406.21516 L 83.035362,406.21516 L 81.472862,406.21516 L 78.472862,406.21516 z " style="fill: url(#radialGradient3143) rgb(0, 0, 0); fill-opacity: 1; fill-rule: evenodd; stroke: rgb(0, 0, 0); stroke-width: 0.5; stroke-linecap: butt; stroke-linejoin: round; stroke-miterlimit: 4; stroke-dasharray: none; stroke-opacity: 1;"/>
    </g>
  </g>
</svg>